<?xml version="1.0" encoding="UTF-8"?><svg xmlns="http://www.w3.org/2000/svg" xmlns:xlink="http://www.w3.org/1999/xlink" width="375" zoomAndPan="magnify" viewBox="0 0 375 374.999991" height="374.999991" preserveAspectRatio="xMidYMid meet" version="1.0"><defs><clipPath id="clip-0"><path d="M 129 248.253906 L 254.902344 248.253906 L 254.902344 295 L 129 295 Z M 129 248.253906 " clip-rule="nonzero"/></clipPath><clipPath id="clip-1"><path d="M 182 270.203125 L 254.902344 270.203125 L 254.902344 297.46875 L 182 297.46875 Z M 182 270.203125 " clip-rule="nonzero"/></clipPath></defs><path fill="rgb(36.079407%, 69.018555%, 89.7995%)" d="M 120.035156 130.53125 C 120.285156 131.886719 120.097656 133.167969 120.03125 134.535156 C 120.007812 134.917969 119.746094 135.136719 119.429688 135.207031 C 119.695312 135.984375 119.945312 136.769531 120.171875 137.566406 C 120.523438 135 120.289062 132.3125 120.234375 129.644531 C 120.066406 129.769531 119.90625 129.902344 119.761719 130.046875 C 119.902344 130.183594 120.003906 130.351562 120.035156 130.53125 " fill-opacity="1" fill-rule="nonzero"/><path fill="rgb(36.079407%, 69.018555%, 89.7995%)" d="M 246.261719 146.707031 C 245.632812 139.449219 244.300781 132.429688 242.785156 125.277344 C 242.582031 124.324219 242.019531 123.652344 241.296875 123.246094 C 240.644531 118.496094 239.515625 113.851562 236.796875 109.523438 C 230.359375 99.28125 219.714844 92.890625 208.335938 89.429688 C 202.15625 87.550781 195.777344 86.507812 189.375 85.742188 C 182.726562 84.945312 175.929688 84.015625 169.277344 85.1875 C 158.246094 87.121094 147.628906 93.546875 139.453125 101.011719 C 131.230469 108.515625 124.703125 118.0625 121.839844 128.835938 C 121.832031 128.839844 121.824219 128.839844 121.816406 128.84375 C 121.773438 132.992188 122.519531 137.238281 121.039062 141.164062 C 121.652344 144.195312 122 147.300781 122.050781 150.3125 C 122.066406 151.308594 122.023438 152.304688 121.960938 153.300781 C 120.324219 158.179688 118.996094 162.980469 120.347656 168.195312 C 120.902344 170.308594 123.835938 170.042969 124.367188 168.191406 C 124.375 168.191406 124.378906 168.191406 124.378906 168.195312 C 126.539062 161.992188 127.339844 156.226562 131.039062 150.65625 C 134.523438 145.410156 138.257812 141.179688 143.570312 137.675781 C 154.832031 130.25 168.355469 125.089844 181.859375 124.042969 C 205.21875 122.234375 230.085938 134.941406 239.988281 156.683594 C 241.5625 160.132812 247.546875 158.472656 247.207031 154.730469 C 246.96875 152.050781 246.636719 149.375 246.261719 146.707031 " fill-opacity="1" fill-rule="nonzero"/><path fill="rgb(75.289917%, 91.758728%, 96.078491%)" d="M 248.960938 175.605469 C 247.597656 168.765625 244.589844 162.316406 241.585938 156.058594 C 238.597656 149.835938 235.089844 142.535156 230.007812 137.738281 C 224.917969 132.945312 217.773438 130.542969 211.386719 128.027344 C 198.929688 123.121094 185.980469 121.691406 172.792969 124.207031 C 165.988281 125.503906 159.074219 127.988281 153.113281 131.546875 C 150.863281 132.890625 148.136719 134.660156 145.667969 136.726562 C 134.800781 142.253906 127.230469 155.117188 123.550781 165.933594 C 118.398438 181.097656 120.796875 198.175781 127.21875 212.542969 C 130.515625 219.910156 135.261719 227.359375 141.394531 232.695312 C 143.699219 234.707031 147.011719 237.074219 149.964844 234.695312 C 153.351562 231.96875 150.578125 228.019531 148.613281 225.480469 C 138.585938 212.53125 130.847656 198.253906 131.359375 181.402344 C 131.613281 173.03125 133.921875 164.425781 137.925781 157.070312 C 140.257812 152.777344 143.210938 149.121094 146.347656 145.597656 C 149.148438 143.949219 151.839844 141.867188 154.652344 140.523438 C 159.753906 138.082031 164.828125 135.972656 170.332031 134.597656 C 180.796875 131.992188 191.75 132.023438 202.101562 135.144531 C 208.035156 136.929688 214.25 139.21875 219.675781 142.238281 C 225.40625 145.425781 228.132812 151.492188 231.214844 157 C 237.601562 168.398438 241.441406 179.546875 238.277344 192.683594 C 237.390625 196.351562 236.347656 200.042969 235.222656 203.652344 C 234.144531 207.136719 232.382812 210.09375 230.855469 213.371094 C 229.339844 216.632812 228.722656 220.246094 227.257812 223.5625 C 226.082031 226.238281 224.847656 228.726562 225.746094 231.667969 C 225.964844 232.378906 226.644531 232.722656 227.355469 232.582031 C 230.09375 232.039062 231.675781 230.105469 233.289062 227.964844 C 235.6875 224.78125 238.9375 221.828125 240.863281 218.339844 C 242.542969 215.296875 243.734375 211.832031 245.167969 208.660156 C 246.726562 205.207031 248.183594 201.699219 248.878906 197.960938 C 250.261719 190.519531 250.441406 183.050781 248.960938 175.605469 " fill-opacity="1" fill-rule="nonzero"/><path fill="rgb(37.249756%, 30.979919%, 67.449951%)" d="M 253.136719 278.125 C 249.957031 269.273438 238.738281 271.789062 231.433594 270.207031 C 226.628906 269.167969 225.792969 265.335938 225.203125 260.976562 C 224.484375 255.667969 224.261719 250.25 224.222656 244.898438 C 224.144531 233.859375 226.671875 224.375 230.472656 214.101562 C 234 204.550781 237.75 195.117188 238.839844 184.902344 C 243.226562 143.738281 190.035156 124.410156 157.925781 139.984375 C 149.339844 144.144531 141.960938 150.914062 137.109375 159.128906 C 134.152344 164.140625 131.765625 170.019531 131.101562 175.941406 C 129.71875 183.023438 129.765625 190.308594 130.550781 197.539062 C 131.464844 205.972656 135.019531 211.933594 140.367188 218.300781 C 143.050781 221.492188 145.800781 224.738281 147.222656 228.714844 C 148.808594 233.140625 148.972656 237.953125 149.0625 242.601562 C 149.160156 247.460938 149 252.320312 148.660156 257.167969 C 148.363281 261.433594 148.347656 266.597656 144.914062 269.675781 C 140.011719 274.078125 131.484375 274.945312 129.570312 282.304688 C 128.78125 285.332031 129.960938 288.632812 132.8125 290.109375 C 136.242188 291.886719 140.9375 290.589844 144.519531 290.132812 C 154.082031 288.902344 163.570312 287.183594 173.257812 287.457031 C 182.859375 287.726562 191.382812 291.066406 200.59375 293.261719 C 205.058594 294.324219 209.78125 295.015625 214.382812 294.78125 C 219.179688 294.542969 221.605469 292.050781 225.035156 289.085938 C 231.613281 283.386719 242.171875 286.074219 250.074219 283.515625 C 252.195312 282.828125 253.964844 280.4375 253.136719 278.125 " fill-opacity="1" fill-rule="nonzero"/><path fill="rgb(29.40979%, 26.669312%, 63.919067%)" d="M 239.398438 180.71875 C 238.964844 173.570312 237.160156 167.679688 234.34375 161.132812 C 229.054688 148.851562 221.144531 139.847656 208.527344 134.914062 C 184.203125 125.40625 153.410156 134.183594 138.929688 156.144531 C 130.167969 169.429688 129.394531 186.355469 134.59375 201.09375 C 135.605469 203.960938 139.589844 202.800781 139.09375 199.855469 C 139.085938 199.789062 139.074219 199.722656 139.066406 199.660156 C 139.335938 199.53125 139.605469 199.375 139.859375 199.175781 C 146.980469 193.652344 154.429688 194.65625 162.734375 195.796875 C 170.15625 196.816406 177.378906 195.332031 184.796875 194.929688 C 192.78125 194.488281 200.785156 194.851562 208.746094 195.511719 C 212.601562 195.828125 216.453125 196.222656 220.296875 196.628906 C 224.367188 197.058594 229.550781 196.929688 232.234375 200.617188 C 233.550781 202.425781 236.539062 202.925781 237.746094 200.617188 C 240.859375 194.683594 239.789062 187.183594 239.398438 180.71875 " fill-opacity="1" fill-rule="nonzero"/><g clip-path="url(#clip-0)"><path fill="rgb(29.40979%, 26.669312%, 63.919067%)" d="M 254.847656 276.988281 C 254.640625 275.011719 253.4375 273.726562 251.40625 273.550781 C 247.277344 273.183594 243.148438 272.824219 239.019531 272.457031 C 235.734375 272.164062 232.019531 272.113281 229.097656 270.394531 C 225.992188 268.5625 224.765625 264.957031 223.925781 261.652344 C 223.007812 258.035156 223.820312 253.96875 222.53125 250.5625 C 221.984375 249.117188 220.121094 248.335938 218.914062 249.609375 C 217.113281 251.511719 216.476562 253.714844 214.058594 255.179688 C 211.890625 256.496094 209.109375 257.4375 206.648438 258.085938 C 200.574219 259.683594 194.246094 258.476562 188.074219 258.359375 C 181.667969 258.242188 175.414062 259.800781 169.023438 259.800781 C 163.714844 259.800781 156.96875 257.671875 154.722656 252.277344 C 153.808594 250.074219 149.945312 250.011719 150.136719 252.894531 C 150.226562 254.261719 150.480469 255.507812 150.863281 256.648438 C 150.214844 257.125 149.761719 257.863281 149.777344 258.824219 C 149.808594 261.378906 150.695312 264.660156 149.753906 267.09375 C 148.496094 270.347656 144.460938 271.113281 141.5 272 C 137.097656 273.316406 132.292969 275.042969 130.015625 279.371094 C 127.8125 283.554688 129.695312 288.226562 134.089844 289.808594 C 139.414062 291.722656 146.273438 290.066406 151.734375 289.574219 C 158.4375 288.976562 165.140625 288.28125 171.878906 288.46875 C 179.222656 288.671875 185.835938 290.53125 192.832031 292.539062 C 199.109375 294.34375 205.621094 295.261719 212.15625 294.65625 C 214.53125 294.433594 217.464844 294.332031 219.601562 293.183594 C 221.929688 291.929688 221.507812 290.132812 222.757812 288.316406 C 228.007812 280.703125 256.300781 290.59375 254.847656 276.988281 " fill-opacity="1" fill-rule="nonzero"/></g><path fill="rgb(100%, 100%, 100%)" d="M 216.757812 221.191406 C 207.367188 219.183594 197.292969 220.03125 187.765625 220.410156 C 183.035156 220.59375 178.304688 220.730469 173.566406 220.789062 C 168.917969 220.839844 164.53125 220.917969 160.917969 224.152344 C 161.789062 223.789062 162.667969 223.425781 163.546875 223.0625 C 162.988281 223.082031 162.429688 223.101562 161.871094 223.117188 C 162.742188 223.476562 163.609375 223.835938 164.472656 224.195312 C 163.921875 223.644531 163.367188 223.089844 162.8125 222.539062 C 159.085938 218.824219 152.476562 221.574219 152.476562 226.820312 C 152.476562 232 159.132812 234.898438 162.8125 231.105469 C 163.367188 230.535156 163.921875 229.964844 164.472656 229.390625 C 163.609375 229.75 162.742188 230.113281 161.871094 230.472656 C 162.429688 230.476562 162.988281 230.488281 163.546875 230.496094 C 162.667969 230.132812 161.789062 229.773438 160.917969 229.410156 C 164.378906 232.402344 168.308594 232.628906 172.730469 232.613281 C 177.75 232.589844 182.753906 232.640625 187.765625 232.757812 C 197.285156 232.972656 207.417969 233.675781 216.757812 231.515625 C 221.8125 230.347656 221.921875 222.296875 216.757812 221.191406 " fill-opacity="1" fill-rule="nonzero"/><path fill="rgb(29.019165%, 43.528748%, 75.289917%)" d="M 247.28125 152.398438 C 246.03125 142.265625 245.335938 132 243.128906 122.023438 C 242.785156 120.476562 241.78125 119.6875 240.636719 119.492188 C 240.359375 116.332031 239.460938 113.242188 238.015625 110.378906 C 235.371094 105.132812 232.773438 100.050781 227.628906 96.980469 C 226.007812 96.007812 224.246094 97.601562 224.601562 99.300781 C 225.761719 104.804688 228.609375 109.78125 230.09375 115.234375 C 231.445312 120.222656 232.828125 124.503906 229.921875 129.171875 C 228.882812 130.828125 227.800781 131.824219 228.027344 134.023438 C 228.269531 136.417969 229.921875 138.082031 231.464844 139.785156 C 235.097656 143.789062 239.007812 148.042969 240.753906 153.277344 C 241.863281 156.609375 247.765625 156.316406 247.28125 152.398438 " fill-opacity="1" fill-rule="nonzero"/><path fill="rgb(29.019165%, 43.528748%, 75.289917%)" d="M 136.613281 132.957031 C 135.210938 132.847656 134.445312 127.910156 134.261719 126.726562 C 133.875 124.285156 133.96875 121.832031 134.21875 119.378906 C 134.664062 115.085938 135.335938 110.105469 137.105469 106.125 C 137.449219 105.355469 136.75 104.621094 135.96875 104.988281 C 131.828125 106.917969 129.9375 111.5 128.988281 116.269531 C 128.257812 116.363281 127.5625 116.753906 127.113281 117.53125 C 122.980469 124.652344 120.921875 130.753906 120.902344 139.113281 C 120.886719 145.554688 121.074219 152.027344 121.019531 158.484375 C 120.667969 160.914062 120.621094 163.410156 120.816406 166.042969 C 120.726562 167.914062 123.320312 168.03125 123.898438 166.460938 C 125.914062 160.988281 128.613281 155.152344 131.785156 150.242188 C 134.796875 145.585938 139.417969 142.207031 140.128906 136.472656 C 140.375 134.484375 138.3125 133.085938 136.613281 132.957031 " fill-opacity="1" fill-rule="nonzero"/><path fill="rgb(75.289917%, 91.758728%, 96.078491%)" d="M 157.402344 89.179688 C 151.648438 88.628906 149.644531 102.164062 149.238281 106 C 148.609375 111.941406 148.324219 123.949219 154.898438 126.800781 C 157.398438 127.886719 160.625 127.195312 161.375 124.164062 C 162.246094 120.644531 160.535156 118.195312 159.753906 114.84375 C 158.890625 111.128906 159.09375 107.417969 159.347656 103.648438 C 159.535156 100.871094 162.433594 89.660156 157.402344 89.179688 " fill-opacity="1" fill-rule="nonzero"/><path fill="rgb(26.669312%, 25.489807%, 25.878906%)" d="M 120.734375 139.617188 C 120.371094 150.074219 121.296875 160.433594 119.832031 170.851562 C 119.675781 171.960938 120.816406 174.34375 121.335938 172.214844 C 123.867188 161.703125 122.5 150.664062 121.9375 139.996094 C 121.867188 138.722656 120.796875 137.839844 120.734375 139.617188 " fill-opacity="1" fill-rule="nonzero"/><path fill="rgb(26.669312%, 25.489807%, 25.878906%)" d="M 121.445312 142.128906 C 121.714844 125 132.664062 107.75 146.09375 97.589844 C 152.011719 93.113281 159.125 90.371094 166.191406 88.355469 C 172.984375 86.417969 180.144531 86.796875 186.839844 84.914062 C 187.53125 84.722656 187.445312 82.398438 186.769531 82.210938 C 170.5 77.699219 149.417969 87.542969 138.347656 99.226562 C 127.453125 110.71875 119.308594 126.027344 120.265625 142.15625 C 120.367188 143.910156 121.417969 143.878906 121.445312 142.128906 " fill-opacity="1" fill-rule="nonzero"/><path fill="rgb(26.669312%, 25.489807%, 25.878906%)" d="M 190.625 85.433594 C 197.945312 87.6875 205.027344 88.542969 212.246094 91.664062 C 219.234375 94.6875 225.769531 98.71875 231.082031 104.183594 C 245.480469 118.992188 244.109375 140.800781 244.914062 159.726562 C 245.085938 163.828125 247.800781 163.757812 247.792969 159.660156 C 247.746094 141.265625 246.992188 121.757812 236.476562 106 C 231.769531 98.949219 224.472656 94.363281 217.144531 90.433594 C 209.972656 86.585938 198.773438 81.335938 190.578125 83.585938 C 190.113281 83.714844 190.183594 85.296875 190.625 85.433594 " fill-opacity="1" fill-rule="nonzero"/><path fill="rgb(26.669312%, 25.489807%, 25.878906%)" d="M 181.808594 121.011719 C 174.285156 118.335938 164.476562 122.421875 157.578125 125.773438 C 149.703125 129.609375 142.460938 134.296875 136.363281 140.628906 C 126.589844 150.792969 122.289062 164.804688 120.359375 178.4375 C 118.8125 189.363281 119.417969 201.242188 123.359375 211.632812 C 127.804688 223.367188 137.726562 238.757812 150.546875 242.3125 C 151.46875 242.5625 151.246094 239.457031 150.835938 239.046875 C 141.742188 229.992188 132.203125 223.996094 126.40625 211.957031 C 120.800781 200.3125 120.773438 186.914062 123.105469 174.472656 C 125.703125 160.609375 131.90625 149.148438 142.164062 139.488281 C 147.4375 134.515625 153.804688 130.960938 160.367188 127.992188 C 167.324219 124.84375 174.957031 124.9375 181.835938 122.003906 C 182.058594 121.90625 182.039062 121.09375 181.808594 121.011719 " fill-opacity="1" fill-rule="nonzero"/><path fill="rgb(26.669312%, 25.489807%, 25.878906%)" d="M 184.703125 122.761719 C 195.09375 125.277344 204.949219 125.210938 214.972656 129.730469 C 224.207031 133.898438 231.847656 140.898438 237.574219 149.164062 C 246.945312 162.695312 250.742188 179.941406 248.429688 196.117188 C 246.328125 210.804688 236.210938 223.992188 225.214844 233.414062 C 224.382812 234.128906 224.816406 237.9375 225.730469 237.28125 C 251.824219 218.527344 256.683594 185.90625 244.777344 157.285156 C 240.085938 146.003906 232.265625 136.347656 222.144531 129.539062 C 212.230469 122.867188 196.523438 117.636719 184.636719 120.253906 C 184.058594 120.382812 184.132812 122.621094 184.703125 122.761719 " fill-opacity="1" fill-rule="nonzero"/><path fill="rgb(26.669312%, 25.489807%, 25.878906%)" d="M 139.703125 155.292969 C 124.441406 172.878906 128.949219 209.25 144.636719 225.410156 C 145.976562 226.78125 145.988281 222.597656 145.660156 221.910156 C 141.445312 213.0625 136.507812 205.335938 133.964844 195.71875 C 130.3125 181.941406 133.792969 169.628906 140.058594 157.332031 C 140.242188 156.980469 140.050781 154.894531 139.703125 155.292969 " fill-opacity="1" fill-rule="nonzero"/><path fill="rgb(26.669312%, 25.489807%, 25.878906%)" d="M 141.339844 155.171875 C 162.378906 135.105469 189.050781 129.300781 215.339844 143.390625 C 226.925781 149.601562 233.261719 159.386719 236.644531 171.855469 C 239.273438 181.535156 239.125 192.015625 234.527344 201.078125 C 232.417969 205.253906 230.644531 208.667969 229.667969 213.277344 C 229.582031 213.671875 230 216.882812 230.644531 215.691406 C 236.726562 204.402344 241.097656 194.710938 240.070312 181.554688 C 239.125 169.460938 235.515625 157.359375 227.507812 148.042969 C 217.183594 136.035156 198.445312 130.109375 183.117188 130.535156 C 168.113281 130.953125 147.664062 139.621094 141.109375 153.851562 C 141.023438 154.039062 141.046875 155.449219 141.339844 155.171875 " fill-opacity="1" fill-rule="nonzero"/><path fill="rgb(26.669312%, 25.489807%, 25.878906%)" d="M 146.789062 227.539062 C 149.933594 234.980469 151.015625 242.550781 151.058594 250.59375 C 151.085938 255.832031 149.941406 260.976562 150.582031 266.183594 C 150.664062 266.890625 151.289062 268.246094 151.808594 266.980469 C 154.367188 260.785156 153.328125 251.980469 152.945312 245.429688 C 152.503906 238.070312 150.820312 230.953125 147.535156 224.355469 C 146.976562 223.230469 146.488281 226.832031 146.789062 227.539062 " fill-opacity="1" fill-rule="nonzero"/><path fill="rgb(26.669312%, 25.489807%, 25.878906%)" d="M 229.203125 213.628906 C 223.285156 225.90625 222.171875 239.457031 222.039062 252.898438 C 221.980469 259.050781 222.578125 273.054688 231.457031 272.851562 C 232.414062 272.832031 232.015625 270.769531 231.554688 270.390625 C 217.121094 258.394531 225.839844 231.433594 229.875 215.84375 C 229.976562 215.445312 229.648438 212.710938 229.203125 213.628906 " fill-opacity="1" fill-rule="nonzero"/><g clip-path="url(#clip-1)"><path fill="rgb(26.669312%, 25.489807%, 25.878906%)" d="M 231.128906 272.683594 C 235.835938 273.382812 240.070312 273.921875 244.851562 273.964844 C 246.53125 273.984375 258.3125 276.320312 251.363281 281.617188 C 249.945312 282.699219 247.957031 282.957031 246.257812 283.285156 C 239.566406 284.570312 232.640625 283.671875 225.957031 285.183594 C 223.929688 285.636719 222.1875 286.894531 221.417969 288.851562 C 219.511719 293.683594 215.621094 293.371094 210.65625 293.238281 C 199.808594 292.953125 193.328125 284.363281 182.308594 289.636719 C 181.996094 289.785156 182.011719 291.007812 182.421875 290.992188 C 195.65625 290.632812 207.3125 301.035156 220.589844 296.1875 C 221.25 295.945312 222.179688 294.851562 222.347656 294.0625 C 223.246094 289.703125 226.113281 289.148438 229.980469 288.640625 C 234.359375 288.0625 238.804688 288.359375 243.199219 287.941406 C 248.121094 287.460938 255.386719 285.523438 254.601562 279.160156 C 253.246094 268.167969 238.8125 272.226562 231.085938 270.839844 C 230.671875 270.761719 230.5625 272.601562 231.128906 272.683594 " fill-opacity="1" fill-rule="nonzero"/></g><path fill="rgb(26.669312%, 25.489807%, 25.878906%)" d="M 151.484375 263.601562 C 149.007812 272.152344 137.257812 271.75 131.4375 277.25 C 129.03125 279.515625 127.53125 285.550781 129.738281 288.453125 C 133.496094 293.429688 141.726562 292.203125 147.164062 291.847656 C 152.957031 291.46875 158.730469 291.046875 164.515625 290.566406 C 172.496094 289.910156 181.316406 291.347656 189.039062 289.839844 C 189.566406 289.738281 189.519531 288.09375 189.09375 287.890625 C 179.40625 283.222656 165.574219 286.753906 155.203125 287.5625 C 148.707031 288.070312 141.742188 288.820312 135.273438 287.789062 C 128.628906 286.738281 131.046875 280.546875 135.390625 278.03125 C 138.179688 276.425781 141.492188 275.757812 144.417969 274.449219 C 149.042969 272.367188 151.769531 269.730469 152.125 264.617188 C 152.144531 264.320312 151.769531 262.613281 151.484375 263.601562 " fill-opacity="1" fill-rule="nonzero"/><path fill="rgb(26.669312%, 25.489807%, 25.878906%)" d="M 144.355469 95.660156 C 135.992188 104.488281 133.367188 116.015625 133.644531 127.882812 C 133.871094 137.257812 138.839844 141.214844 146.308594 133.476562 C 146.457031 133.320312 146.441406 132.410156 146.191406 132.566406 C 143.777344 134.058594 141.5 135.921875 138.605469 136.3125 C 133.324219 137.03125 134.242188 125.40625 134.328125 122.363281 C 134.605469 112.964844 138.214844 103.886719 144.515625 96.949219 C 144.769531 96.664062 144.53125 95.476562 144.355469 95.660156 " fill-opacity="1" fill-rule="nonzero"/><path fill="rgb(26.669312%, 25.489807%, 25.878906%)" d="M 221.933594 96.351562 C 227.398438 102.390625 230.171875 109.804688 231.535156 117.726562 C 232.378906 122.640625 233.089844 130.574219 227.339844 132.59375 C 224.355469 133.644531 221.082031 130.929688 218.835938 129.332031 C 218.585938 129.15625 218.59375 130.152344 218.707031 130.308594 C 224.242188 137.605469 232.882812 134.359375 232.683594 125.304688 C 232.445312 114.449219 229.652344 103.394531 222.007812 95.351562 C 221.886719 95.222656 221.738281 96.132812 221.933594 96.351562 " fill-opacity="1" fill-rule="nonzero"/><path fill="rgb(26.669312%, 25.489807%, 25.878906%)" d="M 141.78125 219.277344 C 134.890625 209.761719 135.898438 198.421875 147.820312 195.816406 C 153.226562 194.632812 159.460938 196.164062 164.839844 196.867188 C 171.796875 197.769531 178.457031 196.945312 185.390625 196.222656 C 193.421875 195.394531 241.527344 188.113281 231.394531 208.320312 C 231.308594 208.488281 231.367188 209.414062 231.589844 209.113281 C 247.640625 187.601562 192.296875 194.453125 185.363281 195.21875 C 180.8125 195.71875 176.214844 196.417969 171.625 196.453125 C 162.097656 196.535156 152.984375 192.15625 143.570312 195.570312 C 131.960938 199.773438 136.316406 212.90625 141.644531 219.917969 C 141.816406 220.136719 141.894531 219.429688 141.78125 219.277344 " fill-opacity="1" fill-rule="nonzero"/><path fill="rgb(26.669312%, 25.489807%, 25.878906%)" d="M 151.890625 242.242188 C 151.871094 246.867188 151.492188 254.179688 155.414062 257.691406 C 163.160156 264.617188 175.320312 262.074219 184.824219 261.960938 C 201.09375 261.757812 222.984375 263.691406 222.976562 241.59375 C 222.976562 241.289062 222.726562 241.121094 222.6875 241.511719 C 220.796875 261.207031 203.503906 261 188.019531 260.707031 C 181.4375 260.582031 174.871094 261.144531 168.292969 261.003906 C 156.832031 260.75 152.359375 253.546875 152.210938 242.234375 C 152.203125 241.765625 151.894531 241.777344 151.890625 242.242188 " fill-opacity="1" fill-rule="nonzero"/><path fill="rgb(26.669312%, 25.489807%, 25.878906%)" d="M 131.355469 109.300781 C 129.375 120.308594 122.703125 129.914062 121.304688 141.027344 C 121.253906 141.449219 121.574219 143 121.828125 141.886719 C 124.324219 130.960938 129.996094 121.046875 131.730469 109.945312 C 131.777344 109.621094 131.503906 108.480469 131.355469 109.300781 " fill-opacity="1" fill-rule="nonzero"/><path fill="rgb(26.669312%, 25.489807%, 25.878906%)" d="M 135.089844 113.445312 C 134.980469 113.605469 134.863281 113.75 134.730469 113.890625 C 131.953125 125.308594 124.800781 136.027344 121.792969 147.171875 C 121.75 147.332031 121.855469 148.492188 122.066406 148.105469 C 127.714844 137.746094 133.464844 124.234375 135.539062 112.546875 C 135.410156 112.855469 135.277344 113.164062 135.089844 113.445312 " fill-opacity="1" fill-rule="nonzero"/><path fill="rgb(26.669312%, 25.489807%, 25.878906%)" d="M 133.648438 128.859375 C 131.808594 137.222656 127.898438 144.308594 124.089844 151.851562 C 123.933594 152.152344 124.058594 153.796875 124.414062 153.300781 C 129.261719 146.542969 132.320312 137.578125 134.035156 129.503906 C 134.105469 129.171875 133.832031 128.050781 133.648438 128.859375 " fill-opacity="1" fill-rule="nonzero"/><path fill="rgb(26.669312%, 25.489807%, 25.878906%)" d="M 135.914062 135.441406 C 134.6875 138.523438 132.605469 141.660156 132.101562 144.957031 C 132.09375 145.046875 132.117188 146.175781 132.386719 145.933594 C 133.476562 144.949219 133.851562 142.914062 134.425781 141.574219 C 135.105469 139.972656 135.769531 138.367188 136.378906 136.734375 C 136.519531 136.359375 136.253906 134.578125 135.914062 135.441406 " fill-opacity="1" fill-rule="nonzero"/><path fill="rgb(26.669312%, 25.489807%, 25.878906%)" d="M 230.316406 102.519531 C 229.421875 105.058594 227.839844 107.777344 228.046875 110.542969 C 228.050781 110.574219 228.160156 111.082031 228.28125 110.921875 C 228.929688 110.082031 228.964844 108.695312 229.292969 107.6875 C 229.730469 106.339844 230.28125 105.027344 230.730469 103.6875 C 230.839844 103.351562 230.589844 101.742188 230.316406 102.519531 " fill-opacity="1" fill-rule="nonzero"/><path fill="rgb(26.669312%, 25.489807%, 25.878906%)" d="M 233.339844 104.972656 C 232.765625 108.589844 230.804688 111.84375 230.34375 115.457031 C 230.332031 115.523438 230.378906 116.570312 230.589844 116.347656 C 231.746094 115.128906 232.117188 112.933594 232.621094 111.375 C 233.214844 109.566406 233.632812 107.730469 233.839844 105.832031 C 233.886719 105.421875 233.519531 103.859375 233.339844 104.972656 " fill-opacity="1" fill-rule="nonzero"/><path fill="rgb(26.669312%, 25.489807%, 25.878906%)" d="M 236.835938 110.542969 C 235.640625 114.230469 233.277344 117.71875 232.617188 121.546875 C 232.597656 121.640625 232.710938 122.828125 232.902344 122.574219 C 233.890625 121.234375 234.320312 119.417969 234.960938 117.882812 C 235.804688 115.871094 236.613281 113.855469 237.253906 111.773438 C 237.359375 111.429688 237.097656 109.726562 236.835938 110.542969 " fill-opacity="1" fill-rule="nonzero"/><path fill="rgb(26.669312%, 25.489807%, 25.878906%)" d="M 239.507812 115.917969 C 236.769531 123.335938 232.539062 130.378906 230.644531 138.085938 C 230.558594 138.433594 230.773438 140.425781 231.164062 139.460938 C 234.140625 132.0625 237.285156 124.648438 239.949219 117.132812 C 240.074219 116.78125 239.808594 115.105469 239.507812 115.917969 " fill-opacity="1" fill-rule="nonzero"/><path fill="rgb(26.669312%, 25.489807%, 25.878906%)" d="M 242.539062 120.699219 C 240.664062 128.792969 234.382812 135.894531 234.132812 144.355469 C 234.128906 144.535156 234.296875 145.597656 234.53125 144.984375 C 236.242188 140.503906 237.570312 136.03125 239.585938 131.632812 C 241.078125 128.378906 242.3125 125.066406 243.0625 121.558594 C 243.15625 121.105469 242.789062 119.609375 242.539062 120.699219 " fill-opacity="1" fill-rule="nonzero"/><path fill="rgb(26.669312%, 25.489807%, 25.878906%)" d="M 243.722656 131.261719 C 242.4375 134.835938 240.765625 138.261719 239.445312 141.820312 C 238.757812 143.679688 237.769531 146.050781 238.433594 148.039062 L 238.59375 148.214844 L 238.703125 148.199219 C 238.980469 148.15625 239.046875 147.742188 239.09375 147.53125 C 240.191406 142.332031 242.699219 137.5625 244.175781 132.476562 C 244.277344 132.132812 244.023438 130.425781 243.722656 131.261719 " fill-opacity="1" fill-rule="nonzero"/><path fill="rgb(26.669312%, 25.489807%, 25.878906%)" d="M 245.65625 137.457031 C 244.414062 141.316406 242.472656 145.171875 242.03125 149.234375 C 241.996094 149.566406 242.351562 151.253906 242.710938 150.261719 C 244.066406 146.496094 244.949219 142.410156 246.078125 138.554688 C 246.171875 138.226562 245.898438 136.699219 245.65625 137.457031 " fill-opacity="1" fill-rule="nonzero"/><path fill="rgb(26.669312%, 25.489807%, 25.878906%)" d="M 245.191406 148.375 C 244.761719 149.585938 244.304688 150.785156 243.835938 151.980469 C 243.355469 153.21875 242.84375 154.308594 242.890625 155.65625 C 242.894531 155.851562 242.917969 156.429688 243.199219 156.464844 L 243.378906 156.488281 C 243.554688 156.511719 243.667969 156.199219 243.703125 156.089844 C 244.386719 154.019531 245.109375 151.957031 245.777344 149.878906 C 245.921875 149.425781 245.558594 147.339844 245.191406 148.375 " fill-opacity="1" fill-rule="nonzero"/><path fill="rgb(26.669312%, 25.489807%, 25.878906%)" d="M 148.765625 144.421875 C 143.414062 160.285156 132.292969 174.542969 130.527344 191.519531 C 130.515625 191.675781 130.527344 192.515625 130.855469 192.375 C 132.113281 191.828125 131.695312 192.175781 132.386719 191.269531 L 132.265625 190.554688 C 131.664062 191.082031 133.929688 180.714844 134.492188 179.128906 C 136.070312 174.671875 138.183594 170.375 140.179688 166.097656 C 143.476562 159.042969 146.625 152.101562 148.84375 144.632812 L 148.765625 144.421875 " fill-opacity="1" fill-rule="nonzero"/><path fill="rgb(26.669312%, 25.489807%, 25.878906%)" d="M 152.609375 143.320312 C 151.636719 148.792969 127.917969 193.847656 133.054688 195.792969 C 133.222656 195.859375 133.15625 195.375 133.117188 195.304688 C 131.671875 192.449219 135.960938 184.660156 136.988281 182.160156 C 139.242188 176.648438 141.726562 171.230469 144.152344 165.792969 C 147.324219 158.707031 151.382812 151.171875 152.667969 143.425781 L 152.609375 143.320312 " fill-opacity="1" fill-rule="nonzero"/><path fill="rgb(26.669312%, 25.489807%, 25.878906%)" d="M 159.070312 141.011719 C 152.027344 155.5 146.644531 170.632812 140.097656 185.328125 C 138.214844 189.566406 133.261719 197.894531 136.058594 202.527344 C 136.257812 202.859375 136.339844 201.835938 136.273438 201.664062 C 134.042969 196.136719 141.363281 186.058594 143.316406 180.941406 C 148.332031 167.804688 153.285156 154.644531 159.253906 141.902344 C 159.359375 141.6875 159.199219 140.738281 159.070312 141.011719 " fill-opacity="1" fill-rule="nonzero"/><path fill="rgb(26.669312%, 25.489807%, 25.878906%)" d="M 165.136719 139.0625 C 158.625 158.9375 148.441406 177.550781 142.207031 197.496094 C 142.753906 197.234375 143.316406 197.003906 143.882812 196.769531 C 145.328125 193.5 147.339844 186.652344 148.308594 184.222656 C 150.253906 179.328125 152.316406 174.472656 154.339844 169.609375 C 158.394531 159.867188 162.242188 150.070312 165.460938 140.015625 C 165.546875 139.75 165.34375 138.429688 165.136719 139.0625 " fill-opacity="1" fill-rule="nonzero"/><path fill="rgb(26.669312%, 25.489807%, 25.878906%)" d="M 171.660156 140.664062 C 163.269531 157.324219 153.609375 174.992188 150.921875 193.699219 C 150.890625 193.890625 151.09375 195.007812 151.265625 194.421875 C 156.515625 176.125 163.527344 159.296875 171.988281 142.25 C 172.171875 141.878906 171.898438 140.203125 171.660156 140.664062 " fill-opacity="1" fill-rule="nonzero"/><path fill="rgb(26.669312%, 25.489807%, 25.878906%)" d="M 180.140625 135.117188 C 171.351562 154.652344 162.03125 174.671875 156.222656 195.355469 C 156.453125 195.375 156.683594 195.394531 156.914062 195.417969 C 164.960938 175.796875 171.957031 155.785156 180.382812 136.289062 C 180.511719 136.003906 180.296875 134.765625 180.140625 135.117188 " fill-opacity="1" fill-rule="nonzero"/><path fill="rgb(26.669312%, 25.489807%, 25.878906%)" d="M 185.863281 133.433594 C 177.8125 154.09375 170.09375 175.046875 162.890625 196.007812 C 162.871094 196.054688 162.882812 196.179688 162.898438 196.3125 C 163.003906 196.328125 163.109375 196.351562 163.214844 196.371094 C 172.796875 176.832031 178.4375 155.214844 186.171875 134.902344 C 186.308594 134.539062 186.03125 133.011719 185.863281 133.433594 " fill-opacity="1" fill-rule="nonzero"/><path fill="rgb(26.669312%, 25.489807%, 25.878906%)" d="M 191.992188 135.304688 C 183.628906 154.621094 177.246094 174.871094 170.113281 194.664062 C 170.03125 194.898438 170.230469 196.140625 170.417969 195.746094 C 179.351562 176.835938 184.074219 156.105469 192.320312 136.871094 C 192.484375 136.480469 192.191406 134.847656 191.992188 135.304688 " fill-opacity="1" fill-rule="nonzero"/><path fill="rgb(26.669312%, 25.489807%, 25.878906%)" d="M 196.609375 137.65625 C 189.292969 156.035156 181.785156 174.6875 177.027344 193.914062 C 176.964844 194.164062 177.140625 195.5 177.359375 194.851562 C 183.699219 176.171875 189.722656 157.519531 196.910156 139.121094 C 197.054688 138.757812 196.777344 137.234375 196.609375 137.65625 " fill-opacity="1" fill-rule="nonzero"/><path fill="rgb(26.669312%, 25.489807%, 25.878906%)" d="M 181.585938 196.449219 C 188.222656 178.035156 194.445312 159.589844 201.90625 141.472656 C 202.0625 141.089844 201.773438 139.460938 201.589844 139.90625 C 193.871094 158.347656 185.851562 177.148438 180.875 196.546875 C 181.109375 196.515625 181.351562 196.480469 181.585938 196.449219 " fill-opacity="1" fill-rule="nonzero"/><path fill="rgb(26.669312%, 25.489807%, 25.878906%)" d="M 208.867188 137.878906 C 202.105469 156.898438 190.859375 174.4375 185.464844 193.902344 C 185.410156 194.105469 185.582031 195.375 185.757812 194.972656 C 193.984375 176.625 202.613281 157.902344 209.203125 138.898438 C 209.300781 138.621094 209.105469 137.214844 208.867188 137.878906 " fill-opacity="1" fill-rule="nonzero"/><path fill="rgb(26.669312%, 25.489807%, 25.878906%)" d="M 211.582031 141.921875 C 204.246094 158.199219 196.363281 174.589844 191.984375 191.972656 C 191.921875 192.226562 192.089844 193.636719 192.328125 192.960938 C 198.25 176.109375 204.75 159.671875 211.863281 143.292969 C 212.003906 142.960938 211.761719 141.523438 211.582031 141.921875 " fill-opacity="1" fill-rule="nonzero"/><path fill="rgb(26.669312%, 25.489807%, 25.878906%)" d="M 198.230469 194.527344 C 204.742188 178.941406 210.957031 163.148438 216.882812 147.328125 C 216.980469 147.066406 216.730469 145.839844 216.582031 146.210938 C 210.304688 162.070312 202.863281 177.605469 197.734375 193.890625 C 197.707031 193.992188 197.730469 194.289062 197.777344 194.558594 C 197.929688 194.546875 198.082031 194.539062 198.230469 194.527344 " fill-opacity="1" fill-rule="nonzero"/><path fill="rgb(26.669312%, 25.489807%, 25.878906%)" d="M 204.171875 194.242188 C 210.050781 179.558594 215.695312 164.816406 221.84375 150.222656 C 221.992188 149.875 221.730469 148.378906 221.546875 148.796875 C 215.109375 163.679688 207.589844 178.566406 203.328125 194.273438 C 203.609375 194.261719 203.890625 194.25 204.171875 194.242188 " fill-opacity="1" fill-rule="nonzero"/><path fill="rgb(26.669312%, 25.489807%, 25.878906%)" d="M 226.910156 150.308594 C 220.425781 164.007812 213.371094 178.058594 210 192.921875 C 209.949219 193.132812 210.117188 194.253906 210.347656 193.671875 C 215.863281 179.601562 220.808594 165.503906 227.226562 151.777344 C 227.390625 151.417969 227.121094 149.867188 226.910156 150.308594 " fill-opacity="1" fill-rule="nonzero"/><path fill="rgb(26.669312%, 25.489807%, 25.878906%)" d="M 227.28125 157.910156 C 221.980469 168.363281 215.96875 179.625 214.910156 191.492188 C 214.886719 191.722656 215.195312 193.011719 215.382812 192.265625 C 218.238281 180.71875 222.394531 170.203125 227.621094 159.515625 C 227.808594 159.132812 227.527344 157.421875 227.28125 157.910156 " fill-opacity="1" fill-rule="nonzero"/><path fill="rgb(26.669312%, 25.489807%, 25.878906%)" d="M 218.992188 194.273438 C 222.683594 183.332031 226.335938 172.71875 230.957031 162.023438 C 230.992188 161.929688 230.964844 161.386719 230.855469 161.546875 C 224.535156 170.59375 219.765625 183.03125 218.023438 194.171875 C 218.34375 194.207031 218.667969 194.238281 218.992188 194.273438 " fill-opacity="1" fill-rule="nonzero"/><path fill="rgb(26.669312%, 25.489807%, 25.878906%)" d="M 234.671875 166.878906 C 229.371094 174.054688 223.539062 184.894531 222.617188 194.71875 C 223.085938 194.792969 223.550781 194.878906 224.011719 194.976562 C 226.0625 185.40625 229.886719 176.804688 234.863281 168.121094 C 235.011719 167.863281 234.785156 166.726562 234.671875 166.878906 " fill-opacity="1" fill-rule="nonzero"/><path fill="rgb(26.669312%, 25.489807%, 25.878906%)" d="M 235.699219 176.96875 C 232.613281 182.34375 228.046875 189.234375 227.257812 195.933594 C 227.628906 196.082031 227.996094 196.234375 228.355469 196.410156 C 228.414062 196.433594 228.46875 196.472656 228.523438 196.5 C 229.078125 194.191406 229.648438 191.921875 230.601562 189.617188 C 232.148438 185.890625 234.140625 182.34375 236.082031 178.816406 C 236.316406 178.390625 236.019531 176.417969 235.699219 176.96875 " fill-opacity="1" fill-rule="nonzero"/><path fill="rgb(26.669312%, 25.489807%, 25.878906%)" d="M 238.445312 182.246094 C 235.664062 187.265625 232.796875 193.066406 231.554688 198.867188 C 231.929688 199.335938 232.210938 199.855469 232.382812 200.40625 C 233.074219 198.429688 233.527344 196.304688 234.179688 194.375 C 235.4375 190.660156 236.984375 187.03125 238.707031 183.515625 C 238.851562 183.222656 238.660156 181.851562 238.445312 182.246094 " fill-opacity="1" fill-rule="nonzero"/><path fill="rgb(26.669312%, 25.489807%, 25.878906%)" d="M 238.820312 188.734375 C 237.53125 191.332031 236.359375 194.039062 236.148438 196.960938 C 236.136719 197.066406 236.269531 197.722656 236.371094 197.347656 C 237.082031 194.824219 237.9375 192.417969 239.101562 190.0625 C 239.261719 189.738281 239.019531 188.332031 238.820312 188.734375 " fill-opacity="1" fill-rule="nonzero"/><path fill="rgb(26.669312%, 25.489807%, 25.878906%)" d="M 137.234375 274.828125 C 136.78125 276.785156 129.953125 287.332031 133.429688 288.714844 C 133.648438 288.800781 133.585938 288.167969 133.546875 288.074219 C 132.746094 286.132812 134.664062 282.867188 135.390625 281.089844 C 136.199219 279.09375 136.867188 277.117188 137.355469 275.019531 C 137.378906 274.914062 137.292969 274.582031 137.234375 274.828125 " fill-opacity="1" fill-rule="nonzero"/><path fill="rgb(26.669312%, 25.489807%, 25.878906%)" d="M 142.855469 273.6875 C 141.089844 276.757812 139.285156 279.800781 137.96875 283.097656 C 137.46875 284.347656 136.214844 287.777344 137.640625 288.882812 C 137.835938 289.035156 137.871094 288.410156 137.871094 288.34375 C 137.582031 283.996094 141.25 279.0625 143.242188 275.390625 C 143.464844 274.984375 143.175781 273.136719 142.855469 273.6875 " fill-opacity="1" fill-rule="nonzero"/><path fill="rgb(26.669312%, 25.489807%, 25.878906%)" d="M 145.554688 271.773438 C 143.847656 277.023438 140.675781 281.808594 139.761719 287.238281 C 139.742188 287.375 139.832031 288.617188 140.113281 288.175781 C 141.761719 285.585938 142.636719 282.257812 143.78125 279.414062 C 144.878906 276.714844 145.816406 274.003906 146.457031 271.179688 C 146.175781 271.394531 145.875 271.59375 145.554688 271.773438 " fill-opacity="1" fill-rule="nonzero"/><path fill="rgb(26.669312%, 25.489807%, 25.878906%)" d="M 149.847656 266.839844 C 146.453125 274.5625 143.304688 282.554688 142.835938 290.867188 C 142.824219 291.183594 143.070312 292.101562 143.242188 291.351562 C 145.011719 283.453125 147.53125 276.074219 150.425781 268.707031 C 149.964844 268.246094 149.714844 267.613281 149.847656 266.839844 " fill-opacity="1" fill-rule="nonzero"/><path fill="rgb(26.669312%, 25.489807%, 25.878906%)" d="M 157.125 259.492188 C 154.164062 267.304688 151.6875 275.285156 148.84375 283.140625 C 148.425781 284.292969 146.554688 287.757812 147.558594 289.050781 L 147.726562 289.046875 L 147.953125 288.632812 L 147.882812 288.03125 C 148.953125 287.664062 150.515625 281.097656 150.792969 280.28125 C 152.988281 273.777344 155.074219 267.234375 157.46875 260.792969 C 157.589844 260.480469 157.289062 259.070312 157.125 259.492188 " fill-opacity="1" fill-rule="nonzero"/><path fill="rgb(26.669312%, 25.489807%, 25.878906%)" d="M 162.273438 260.226562 C 158.058594 268.8125 153.125 278.230469 151.964844 287.84375 C 151.945312 287.949219 152.09375 289.003906 152.246094 288.625 C 155.914062 279.710938 158.699219 270.4375 162.550781 261.535156 C 162.679688 261.234375 162.472656 259.820312 162.273438 260.226562 " fill-opacity="1" fill-rule="nonzero"/><path fill="rgb(26.669312%, 25.489807%, 25.878906%)" d="M 166.847656 261 C 163.496094 269.808594 158.6875 278.671875 157.980469 288.207031 C 157.96875 288.367188 158.160156 289.300781 158.308594 288.761719 C 160.929688 279.609375 164.203125 270.855469 167.285156 261.855469 C 167.332031 261.71875 167.3125 261.355469 167.257812 261.058594 C 167.121094 261.039062 166.980469 261.019531 166.847656 261 " fill-opacity="1" fill-rule="nonzero"/><path fill="rgb(26.669312%, 25.489807%, 25.878906%)" d="M 172.542969 262.179688 C 168.058594 268.609375 165.792969 277.210938 164.425781 284.847656 C 164.394531 285.007812 164.582031 286.367188 164.792969 285.894531 C 168 278.570312 168.464844 270.558594 172.84375 263.605469 C 173.042969 263.292969 172.851562 261.738281 172.542969 262.179688 " fill-opacity="1" fill-rule="nonzero"/><path fill="rgb(26.669312%, 25.489807%, 25.878906%)" d="M 177.464844 262.644531 C 174.339844 270.75 169.347656 278.652344 168.632812 287.472656 C 168.613281 287.703125 168.902344 289.019531 169.101562 288.261719 C 171.285156 279.796875 174.808594 272.085938 177.796875 263.902344 C 177.910156 263.605469 177.628906 262.226562 177.464844 262.644531 " fill-opacity="1" fill-rule="nonzero"/><path fill="rgb(26.669312%, 25.489807%, 25.878906%)" d="M 183.042969 261.6875 C 179.425781 269.660156 172.6875 278.703125 173.960938 287.945312 C 174.117188 289.019531 174.566406 288.449219 174.566406 287.675781 C 174.582031 278.808594 179.871094 271.050781 183.351562 263.195312 C 183.503906 262.835938 183.242188 261.257812 183.042969 261.6875 " fill-opacity="1" fill-rule="nonzero"/><path fill="rgb(26.669312%, 25.489807%, 25.878906%)" d="M 187.558594 261.273438 C 184.339844 269.320312 179.953125 277.636719 179.417969 286.402344 C 179.410156 286.578125 179.578125 287.609375 179.777344 287.023438 C 182.554688 278.714844 185.007812 270.375 188.085938 262.132812 C 188.140625 261.988281 188.105469 261.589844 188.03125 261.261719 C 187.871094 261.265625 187.714844 261.273438 187.558594 261.273438 " fill-opacity="1" fill-rule="nonzero"/><path fill="rgb(26.669312%, 25.489807%, 25.878906%)" d="M 194.152344 261.285156 C 193.847656 261.273438 193.539062 261.269531 193.230469 261.257812 C 189.074219 269.410156 185.390625 278.335938 184.246094 287.421875 C 184.207031 287.714844 184.527344 289.546875 184.777344 288.597656 C 187.300781 279.160156 189.957031 270.125 194.210938 261.289062 C 194.191406 261.289062 194.171875 261.285156 194.152344 261.285156 " fill-opacity="1" fill-rule="nonzero"/><path fill="rgb(26.669312%, 25.489807%, 25.878906%)" d="M 197.964844 261.363281 C 194.109375 269.328125 190.28125 277.835938 189.523438 286.667969 C 189.515625 286.796875 189.652344 287.570312 189.792969 287.132812 C 192.515625 278.441406 195.261719 269.910156 198.402344 261.363281 C 198.257812 261.363281 198.113281 261.363281 197.964844 261.363281 " fill-opacity="1" fill-rule="nonzero"/><path fill="rgb(26.669312%, 25.489807%, 25.878906%)" d="M 203.277344 261.109375 C 199.539062 270.078125 195.152344 279.183594 193.296875 288.71875 C 193.269531 288.855469 193.417969 289.941406 193.589844 289.5625 C 197.734375 280.386719 200.597656 270.421875 204.242188 261 C 203.921875 261.039062 203.601562 261.078125 203.277344 261.109375 " fill-opacity="1" fill-rule="nonzero"/><path fill="rgb(26.669312%, 25.489807%, 25.878906%)" d="M 208.414062 261.167969 C 203.4375 269.242188 199.546875 278.992188 198.164062 288.410156 C 198.132812 288.640625 198.324219 290.121094 198.578125 289.363281 C 201.773438 279.9375 204.328125 270.605469 208.480469 261.484375 L 208.414062 261.167969 " fill-opacity="1" fill-rule="nonzero"/><path fill="rgb(26.669312%, 25.489807%, 25.878906%)" d="M 213.898438 258.011719 C 210.222656 268.472656 205.996094 278.847656 202.929688 289.484375 C 202.882812 289.660156 203.011719 290.824219 203.195312 290.460938 C 208.292969 280.265625 211.164062 268.65625 214.398438 257.722656 C 214.234375 257.824219 214.0625 257.917969 213.898438 258.011719 " fill-opacity="1" fill-rule="nonzero"/><path fill="rgb(26.669312%, 25.489807%, 25.878906%)" d="M 219.554688 253.820312 C 214.886719 266.488281 209.375 279.039062 206.054688 292.148438 C 206 292.378906 206.148438 293.671875 206.367188 293.050781 C 210.925781 280.269531 215.300781 267.386719 219.6875 254.535156 C 219.742188 254.371094 219.621094 253.628906 219.554688 253.820312 " fill-opacity="1" fill-rule="nonzero"/><path fill="rgb(26.669312%, 25.489807%, 25.878906%)" d="M 222.941406 258.332031 C 219.152344 269.488281 213.199219 280.222656 211.214844 291.921875 C 211.1875 292.066406 211.3125 292.9375 211.46875 292.488281 C 215.296875 281.203125 219.792969 269.988281 223 258.507812 L 222.941406 258.332031 " fill-opacity="1" fill-rule="nonzero"/><path fill="rgb(26.669312%, 25.489807%, 25.878906%)" d="M 224.496094 266.957031 C 221.238281 274.96875 216.988281 283.308594 216.082031 292 C 216.0625 292.171875 216.226562 293.097656 216.410156 292.570312 C 219.257812 284.261719 222.253906 275.746094 224.585938 267.28125 L 224.496094 266.957031 " fill-opacity="1" fill-rule="nonzero"/><path fill="rgb(26.669312%, 25.489807%, 25.878906%)" d="M 228.539062 269.4375 C 225.003906 274.089844 222.515625 282.230469 223.238281 288.074219 C 223.277344 288.414062 223.492188 288.707031 223.589844 288.207031 C 224.179688 285.234375 224.449219 282.285156 225.238281 279.328125 C 226.113281 276.039062 227.523438 272.929688 228.59375 269.707031 L 228.539062 269.4375 " fill-opacity="1" fill-rule="nonzero"/><path fill="rgb(26.669312%, 25.489807%, 25.878906%)" d="M 232.417969 271.589844 C 230.367188 276.261719 227.988281 281.363281 228.640625 286.472656 C 228.675781 286.75 228.832031 286.972656 228.914062 286.578125 C 230.011719 281.457031 231.292969 276.789062 233.210938 271.914062 C 232.910156 271.851562 232.652344 271.730469 232.417969 271.589844 " fill-opacity="1" fill-rule="nonzero"/><path fill="rgb(26.669312%, 25.489807%, 25.878906%)" d="M 237.699219 271.4375 C 235.695312 273.488281 234.652344 276.789062 233.824219 279.472656 C 233.273438 281.261719 232.589844 283.867188 233.402344 285.667969 C 233.5 285.882812 233.601562 285.550781 233.613281 285.484375 C 234.109375 283.128906 234.25 280.839844 235.03125 278.519531 C 235.804688 276.195312 236.941406 274.027344 237.757812 271.726562 L 237.699219 271.4375 " fill-opacity="1" fill-rule="nonzero"/><path fill="rgb(26.669312%, 25.489807%, 25.878906%)" d="M 241.546875 272.578125 C 240.75 275.011719 239.699219 277.347656 238.980469 279.800781 C 238.851562 280.242188 238.046875 283.753906 239.066406 283.648438 C 239.277344 283.625 239.175781 283.027344 239.148438 282.917969 C 239.261719 283.332031 239.148438 283.117188 239.203125 282.804688 C 239.257812 282.453125 239.324219 282.105469 239.40625 281.757812 C 239.648438 280.742188 239.953125 279.742188 240.273438 278.746094 C 240.804688 277.078125 241.433594 275.433594 241.929688 273.746094 C 242.023438 273.445312 241.800781 271.816406 241.546875 272.578125 " fill-opacity="1" fill-rule="nonzero"/><path fill="rgb(26.669312%, 25.489807%, 25.878906%)" d="M 246.417969 273.253906 C 244.8125 274.164062 243.894531 277.359375 243.289062 278.96875 C 242.632812 280.714844 241.757812 283.097656 242.414062 284.972656 L 242.621094 285.261719 L 242.867188 285.242188 C 243.09375 285.25 242.957031 284.488281 242.914062 284.382812 C 242.539062 283.472656 243.746094 280.523438 244.171875 279.292969 C 244.851562 277.328125 245.773438 275.46875 246.457031 273.507812 L 246.417969 273.253906 " fill-opacity="1" fill-rule="nonzero"/><path fill="rgb(26.669312%, 25.489807%, 25.878906%)" d="M 248.65625 274.925781 C 248.316406 277.117188 247.226562 279.203125 246.675781 281.359375 C 246.570312 281.761719 245.933594 285.488281 247.113281 284.925781 C 247.265625 284.855469 247.246094 284.296875 247.121094 284.199219 C 246.753906 283.917969 246.820312 284.960938 246.910156 284.375 C 246.960938 284.03125 247.023438 283.695312 247.09375 283.355469 C 247.273438 282.476562 247.542969 281.609375 247.800781 280.746094 C 248.273438 279.148438 248.902344 277.539062 249.121094 275.878906 C 249.179688 275.449219 248.84375 273.710938 248.65625 274.925781 " fill-opacity="1" fill-rule="nonzero"/><path fill="rgb(26.669312%, 25.489807%, 25.878906%)" d="M 251.632812 276.871094 C 251.058594 279.273438 250.265625 281.617188 249.691406 284.027344 L 249.824219 284.761719 C 251.210938 282.824219 251.648438 280.089844 251.984375 277.796875 C 252.019531 277.574219 251.804688 276.160156 251.632812 276.871094 " fill-opacity="1" fill-rule="nonzero"/></svg>