<?xml version="1.0" encoding="UTF-8"?><svg xmlns="http://www.w3.org/2000/svg" xmlns:xlink="http://www.w3.org/1999/xlink" width="375" zoomAndPan="magnify" viewBox="0 0 375 374.999991" height="374.999991" preserveAspectRatio="xMidYMid meet" version="1.0"><defs><clipPath id="clip-0"><path d="M 75.015625 69.207031 L 299.6875 69.207031 L 299.6875 306.222656 L 75.015625 306.222656 Z M 75.015625 69.207031 " clip-rule="nonzero"/></clipPath></defs><g clip-path="url(#clip-0)"><path fill="rgb(0%, 29.019165%, 67.83905%)" d="M 79.5 117.675781 L 80.417969 112.445312 L 187.351562 69.207031 L 294.285156 112.445312 L 295.203125 117.675781 C 313.574219 222.421875 274.988281 293.296875 188.746094 306.019531 L 187.351562 306.222656 L 185.957031 306.019531 C 99.714844 293.296875 61.128906 222.421875 79.5 117.675781 " fill-opacity="1" fill-rule="evenodd"/></g><path fill="rgb(54.899597%, 32.159424%, 100%)" d="M 187.351562 296.550781 C 266.351562 284.902344 303.601562 220.90625 285.785156 119.328125 L 187.351562 79.527344 L 88.917969 119.328125 C 71.101562 220.90625 108.355469 284.902344 187.351562 296.550781 " fill-opacity="1" fill-rule="evenodd"/><path fill="rgb(100%, 100%, 100%)" d="M 224.71875 285.402344 L 160.164062 240.289062 L 124.699219 212.402344 C 132.3125 202.566406 139.246094 195.523438 145.496094 191.273438 C 156.464844 167.644531 171.148438 155.492188 190.085938 150.847656 C 192.332031 148.765625 195.03125 147.304688 198.179688 146.46875 C 198.109375 137.503906 198.433594 130.265625 199.152344 124.75 C 188.902344 111.941406 187.644531 90.472656 195.007812 82.777344 C 207.886719 68.710938 226.667969 71.125 233.898438 88.023438 C 238.398438 89.785156 248.546875 86.824219 250.964844 90.707031 C 253.902344 95.421875 249.121094 98.378906 237.894531 100.089844 L 238.488281 102.398438 L 237.261719 105.601562 C 239.054688 109.066406 239.125 112.953125 238.167969 117.351562 C 239.324219 127.664062 238.613281 131.902344 231.132812 135.492188 L 230.835938 142.449219 C 233.261719 142.640625 235.214844 143.292969 236.699219 144.402344 C 238.382812 146.378906 239.394531 149.421875 239.742188 153.53125 C 247.765625 158.402344 254.59375 163.328125 260.226562 168.308594 C 271.625 182.671875 272.15625 203.777344 261.816406 231.628906 C 265.128906 238.597656 253.796875 254.195312 245.964844 252.851562 C 240.507812 258.726562 235.226562 262.710938 230.113281 264.804688 L 224.71875 285.402344 " fill-opacity="1" fill-rule="nonzero"/><path fill="rgb(0%, 29.019165%, 67.83905%)" d="M 147.027344 284.390625 C 143.738281 232.597656 162.46875 194.960938 162.46875 194.960938 C 163.53125 198.460938 170.019531 204.039062 181.933594 211.683594 C 191.675781 239.351562 199.976562 255.917969 216.886719 270.464844 C 222.734375 268.921875 232.316406 263.53125 235.089844 262.050781 L 233.433594 281.335938 C 220.207031 288.855469 204.796875 293.980469 187.351562 296.550781 C 172.382812 294.34375 158.910156 290.257812 147.027344 284.390625 " fill-opacity="1" fill-rule="nonzero"/><path fill="rgb(0%, 29.019165%, 67.83905%)" d="M 122.449219 255.539062 L 165.9375 255.539062 L 165.9375 291.816406 C 148.898438 286.652344 134.339844 278.554688 122.449219 267.714844 L 122.449219 255.539062 " fill-opacity="1" fill-rule="nonzero"/><path fill="rgb(0%, 29.019165%, 67.83905%)" d="M 246.332031 157.722656 C 248.324219 159.054688 250.230469 160.390625 252.046875 161.726562 C 234.199219 169.410156 219.933594 185.335938 218.539062 196.675781 L 229.75 205.394531 C 223.902344 210.234375 221 215.828125 221.039062 222.175781 C 204.496094 208.230469 194.984375 198.429688 192.507812 192.777344 L 205.851562 192.039062 C 214.320312 177.449219 225.859375 161.347656 246.332031 157.722656 " fill-opacity="1" fill-rule="nonzero"/><path fill="rgb(85.879517%, 81.568909%, 78.819275%)" d="M 237.261719 105.601562 C 239.054688 109.066406 239.125 112.953125 238.167969 117.351562 C 238.976562 124.5625 238.871094 128.804688 236.179688 131.929688 C 233.214844 134.042969 228.742188 134.523438 223.839844 134 C 225.398438 130.011719 225.222656 126.972656 223.3125 124.882812 C 221.511719 123.566406 220.65625 121.476562 220.742188 118.609375 C 219.296875 116.304688 218.941406 113.796875 219.671875 111.085938 L 218.539062 106.980469 L 216.664062 98.863281 C 222.753906 99.953125 229.085938 99.492188 235.65625 97.480469 C 236.503906 98.886719 237.097656 100.28125 237.445312 101.667969 C 236.21875 103.175781 234.304688 103.28125 233.164062 104.351562 L 234.386719 106.988281 C 234.386719 106.988281 237.390625 105.851562 237.261719 105.601562 " fill-opacity="1" fill-rule="nonzero"/><path fill="rgb(85.879517%, 81.568909%, 78.819275%)" d="M 177.664062 163.03125 L 174.71875 168.570312 L 165.300781 166.101562 L 167.714844 161.339844 C 166.074219 159.21875 164.925781 156.898438 164.265625 154.386719 L 168.34375 141.230469 C 170.035156 136.375 171.117188 128.226562 171.59375 116.792969 C 181.039062 117.136719 189.054688 120.519531 195.636719 126.945312 C 193.972656 136.445312 192.09375 143.609375 190 148.4375 L 183.800781 160.585938 C 182.089844 161.722656 180.042969 162.535156 177.664062 163.03125 " fill-opacity="1" fill-rule="evenodd"/><path fill="rgb(0%, 29.019165%, 67.83905%)" d="M 235.898438 113.996094 C 234.25 114.59375 232.8125 114.644531 231.585938 114.160156 C 229.792969 113.867188 228.410156 114.105469 227.4375 114.875 C 227.316406 116.566406 230.875 116.074219 232.148438 117.511719 C 232.753906 116.839844 233.546875 116.863281 234.464844 116.628906 C 235.648438 116.136719 236.125 115.257812 235.898438 113.996094 " fill-opacity="1" fill-rule="evenodd"/><path fill="rgb(0%, 29.019165%, 67.83905%)" d="M 236.71875 121.675781 L 233.308594 120.582031 L 232.207031 121.332031 L 230.480469 120.617188 L 225.617188 122.511719 L 230.066406 122.511719 C 231.152344 123.367188 232.671875 123.460938 234.417969 122.511719 L 236.71875 121.675781 " fill-opacity="1" fill-rule="evenodd"/><path fill="rgb(0%, 29.019165%, 67.83905%)" d="M 236.566406 124.207031 C 234.730469 127.261719 229.300781 127.773438 226.679688 124.890625 C 229.113281 125.398438 234.542969 124.886719 236.566406 124.207031 " fill-opacity="1" fill-rule="evenodd"/><path fill="rgb(0%, 29.019165%, 67.83905%)" d="M 218.628906 107.058594 C 219.804688 104.929688 221.394531 104.515625 224.226562 103.730469 C 226.601562 103.578125 227.375 104.152344 228.640625 104.375 C 228.320312 105.925781 227.039062 107.570312 224.46875 108.40625 C 221.464844 108.035156 218.628906 107.058594 218.628906 107.058594 " fill-opacity="1" fill-rule="evenodd"/><path fill="rgb(0%, 29.019165%, 67.83905%)" d="M 237.894531 100.089844 L 238.488281 102.398438 L 237.261719 105.601562 C 237.390625 105.851562 234.113281 108.414062 234.113281 108.414062 L 232.570312 104.035156 C 233.714844 102.964844 236.21875 103.175781 237.445312 101.667969 C 237.097656 100.28125 236.503906 98.886719 235.65625 97.480469 C 227.296875 100.039062 219.324219 100.089844 211.742188 97.628906 C 239.40625 96.339844 243.550781 90.089844 248.605469 89.078125 C 249.640625 89.398438 250.464844 89.910156 250.964844 90.707031 C 253.902344 95.421875 249.121094 98.378906 237.894531 100.089844 " fill-opacity="1" fill-rule="nonzero"/><path fill="rgb(0%, 29.019165%, 67.83905%)" d="M 199.152344 124.75 C 195.277344 119.910156 192.691406 113.828125 191.367188 107.726562 C 195.210938 103.546875 200.144531 101.085938 206.164062 100.339844 C 206.152344 102.273438 206.753906 103.820312 207.972656 104.976562 C 206.925781 107.582031 206.777344 109.410156 207.523438 110.464844 L 203.679688 110.800781 C 189.441406 99.550781 199.300781 126.179688 204.273438 122.140625 C 204.347656 125.769531 201.035156 125.921875 199.152344 124.75 " fill-opacity="1" fill-rule="nonzero"/><path fill="rgb(85.879517%, 81.568909%, 78.819275%)" d="M 207.105469 74.703125 C 217.691406 71.277344 228.738281 75.960938 233.898438 88.023438 C 227.492188 88.320312 221.515625 91.605469 218.058594 94.546875 C 221.28125 83.808594 217.628906 77.195312 207.105469 74.703125 " fill-opacity="1" fill-rule="nonzero"/><path fill="rgb(85.879517%, 81.568909%, 78.819275%)" d="M 215.625 132.980469 C 219.246094 141.308594 218.933594 148.027344 214.683594 153.132812 C 209.699219 157.167969 204.890625 156.835938 200.257812 152.136719 L 202.875 167.5 L 211.679688 158.6875 C 216.050781 158.027344 220.484375 156.210938 225.121094 152.902344 C 228.765625 146.261719 229.765625 141.167969 228.125 137.617188 L 215.625 132.980469 " fill-opacity="1" fill-rule="evenodd"/><path fill="rgb(0%, 29.019165%, 67.83905%)" d="M 236.179688 131.929688 C 235.019531 133.273438 233.382812 134.414062 231.132812 135.492188 L 230.835938 142.449219 C 231.136719 142.472656 230.851562 151.945312 221.175781 155.390625 C 225.140625 150.28125 227.175781 145.425781 227.230469 140.855469 C 227.722656 135.984375 218.027344 137.664062 210.199219 130.558594 C 219.351562 134.046875 230.519531 135.960938 236.179688 131.929688 " fill-opacity="1" fill-rule="nonzero"/><path fill="rgb(85.879517%, 81.568909%, 78.819275%)" d="M 263.839844 173.738281 C 271.597656 187.804688 270.921875 207.101562 261.816406 231.628906 C 265.128906 238.597656 253.796875 254.195312 245.964844 252.851562 C 240.507812 258.726562 235.226562 262.710938 230.113281 264.804688 C 225.285156 266.941406 220.960938 267.675781 217.140625 267.007812 C 204.902344 257.65625 194.171875 239.386719 182.890625 210.578125 C 173.332031 205.105469 166.679688 199.457031 162.933594 193.636719 L 153.492188 189.003906 C 152.59375 188.03125 152.832031 187.4375 154.203125 187.21875 L 165.25 191.496094 C 171.53125 198.953125 178.601562 203.769531 186.453125 205.941406 C 198.34375 235.066406 210.460938 252.601562 222.804688 258.546875 C 232.503906 256.929688 239.273438 253.1875 243.117188 247.3125 C 243.679688 245.257812 241.894531 240.621094 237.769531 233.402344 C 244.738281 237.652344 249.136719 240.976562 250.957031 243.390625 C 254.199219 240.523438 256.21875 237.078125 257.015625 233.046875 L 248.460938 222.171875 L 255.941406 224.84375 C 262.871094 208.960938 265.503906 191.925781 263.839844 173.738281 " fill-opacity="1" fill-rule="nonzero"/><path fill="rgb(100%, 100%, 100%)" d="M 171.59375 116.792969 C 181.023438 117.136719 189.027344 120.507812 195.601562 126.914062 L 184.414062 122.96875 C 183.285156 128.183594 181.058594 136.582031 179.371094 136.714844 C 180.601562 132.085938 181.046875 128.082031 180.695312 124.707031 L 176.722656 136.21875 C 176.113281 135.800781 176.886719 125.351562 176.066406 122.636719 C 176.21875 128.785156 174.921875 135.410156 172.171875 142.511719 C 176.949219 144.464844 180.921875 146.53125 184.085938 148.714844 C 185.335938 149.773438 185.015625 150.933594 183.507812 150.953125 L 172.832031 147.3125 C 171.964844 147.242188 171.359375 148.414062 172.40625 148.996094 L 181.851562 152.691406 C 183.34375 153.753906 182.460938 156.476562 180.863281 156.257812 L 171.515625 152.28125 C 169.808594 151.679688 168.679688 153.753906 170.433594 154.929688 L 180.203125 159.730469 C 180.441406 160.363281 180.054688 160.695312 179.039062 160.726562 L 170.679688 159.480469 C 170.15625 159.726562 170.046875 160.195312 170.351562 160.894531 L 172.585938 163.539062 L 170.640625 167.503906 L 165.300781 166.101562 L 167.714844 161.339844 C 166.074219 159.21875 164.925781 156.898438 164.265625 154.386719 L 168.34375 141.230469 C 170.035156 136.375 171.117188 128.226562 171.59375 116.792969 " fill-opacity="1" fill-rule="nonzero"/><path fill="rgb(100%, 100%, 100%)" d="M 124.699219 253.324219 C 129.355469 251.429688 138.9375 250.132812 150 250.132812 C 165.636719 250.132812 178.308594 252.726562 178.308594 255.929688 C 178.308594 259.128906 165.636719 261.722656 150 261.722656 C 138.9375 261.722656 129.355469 260.425781 124.699219 258.53125 C 122.40625 257.40625 121.007812 254.839844 124.699219 253.324219 " fill-opacity="1" fill-rule="nonzero"/><path fill="rgb(85.879517%, 81.568909%, 78.819275%)" d="M 192.867188 195.34375 L 183.222656 172.5 C 176.964844 168.6875 169.054688 165.984375 165.421875 166.113281 C 172.914062 169.761719 178.027344 172.484375 180.757812 174.28125 C 181.359375 175.949219 180.832031 177.957031 179.15625 178.675781 C 179.195312 180.789062 178.441406 181.632812 176.917969 182.847656 C 177.234375 184.664062 176.078125 186.628906 173.457031 188.742188 L 189.027344 199.78125 C 192.796875 199.257812 194.078125 197.78125 192.867188 195.34375 " fill-opacity="1" fill-rule="evenodd"/><path fill="rgb(85.879517%, 81.568909%, 78.819275%)" d="M 163.484375 170.21875 L 172.480469 174.765625 C 172.820312 175.519531 172.625 175.941406 171.890625 176.035156 L 163.667969 171.535156 L 161.445312 171.535156 L 163.484375 170.21875 " fill-opacity="1" fill-rule="evenodd"/><path fill="rgb(85.879517%, 81.568909%, 78.819275%)" d="M 158.71875 175.671875 L 161.078125 175.265625 L 169.300781 179.945312 C 169.667969 180.675781 169.425781 181.039062 168.574219 181.035156 L 160.582031 176.308594 L 158.71875 175.671875 " fill-opacity="1" fill-rule="evenodd"/><path fill="rgb(85.879517%, 81.568909%, 78.819275%)" d="M 156.582031 180.988281 L 165.757812 185.21875 C 166.085938 186.101562 165.902344 186.648438 165.210938 186.855469 L 156.949219 182.808594 L 154.675781 182.808594 L 156.582031 180.988281 " fill-opacity="1" fill-rule="evenodd"/><path fill="rgb(85.879517%, 81.568909%, 78.819275%)" d="M 124.300781 239.164062 C 105.5625 236.191406 98.441406 225.480469 117.179688 212.453125 C 124.789062 202.617188 145.757812 183.5 152.007812 179.25 C 152.160156 178.921875 149.398438 188.867188 154.601562 191.414062 C 159.457031 193.84375 162.46875 194.960938 162.46875 194.960938 C 162.710938 195.773438 163.25 196.695312 164.078125 197.726562 C 161.527344 205.109375 159.871094 203.707031 158.078125 224.308594 L 124.300781 239.164062 " fill-opacity="1" fill-rule="nonzero"/><path fill="rgb(100%, 100%, 100%)" d="M 163.140625 193.953125 L 160.484375 199.476562 C 157.796875 200.535156 151.957031 196.933594 152.035156 194.765625 L 154.648438 189.570312 L 162.933594 193.636719 L 163.140625 193.953125 " fill-opacity="1" fill-rule="evenodd"/><path fill="rgb(100%, 100%, 100%)" d="M 124.699219 231.070312 L 124.699219 221.429688 C 125.792969 221.011719 126.949219 220.5 126.949219 220.5 L 133.351562 215.980469 C 134.71875 214.851562 136.207031 214.476562 137.808594 214.859375 C 139.484375 213.257812 141.332031 212.789062 143.929688 214.03125 C 146.3125 211.859375 148.453125 211.96875 150.703125 213.308594 C 153.882812 211.84375 154.535156 211.820312 156.699219 213.144531 C 161.066406 216.238281 163.726562 217.722656 164.605469 219.269531 L 164.664062 225.585938 C 166.679688 228.796875 169.46875 231.914062 166.890625 234.652344 C 158.832031 237.097656 157.160156 240.976562 155.277344 241.421875 C 152.191406 242.148438 152.011719 238.472656 154.433594 235.605469 C 151.46875 236.84375 148.625 236.191406 148.738281 235.25 C 145.363281 236.488281 142.738281 236.382812 141.910156 235.074219 C 138.707031 236.371094 136.980469 235.382812 136.457031 234.4375 C 138.589844 230.429688 138.945312 227.375 137.527344 225.273438 C 134.070312 226.65625 131.894531 228.332031 131.003906 230.300781 L 124.699219 231.070312 " fill-opacity="1" fill-rule="nonzero"/><path fill="rgb(85.879517%, 81.568909%, 78.819275%)" d="M 124.699219 231.070312 L 124.699219 227.816406 L 129.113281 227.609375 C 131.679688 225.953125 132.753906 222.851562 136.347656 221.992188 L 139.757812 225.167969 L 140.050781 231.84375 C 140.023438 232.816406 142.480469 233.234375 144.105469 231.785156 L 144.394531 224.019531 L 141.039062 219.960938 C 140.925781 219.320312 141.371094 219.300781 142.367188 219.902344 L 146.425781 224.15625 L 146.058594 231.933594 C 146.242188 233.765625 150.386719 233.828125 150.765625 232.425781 L 151.453125 223.425781 L 148.160156 218.804688 C 148.164062 218.199219 148.679688 217.902344 149.375 218.691406 L 152.679688 222.972656 L 152.390625 232.132812 C 153.160156 233.640625 156.789062 233.09375 157.082031 232.074219 L 157.488281 222.234375 L 154.007812 217.527344 C 153.617188 216.929688 154.476562 216.867188 154.9375 217.125 L 159.164062 221.066406 L 158.984375 231.550781 C 159.621094 232.554688 162.984375 232.890625 163.5625 231.148438 C 163.5625 231.148438 164.5625 219.191406 164.605469 219.269531 L 164.664062 225.585938 C 166.679688 228.796875 169.46875 231.914062 166.890625 234.652344 C 158.832031 237.097656 157.160156 240.976562 155.277344 241.421875 C 152.191406 242.148438 152.011719 238.472656 154.433594 235.605469 C 151.46875 236.84375 148.625 236.191406 148.738281 235.25 C 145.363281 236.488281 142.738281 236.382812 141.910156 235.074219 C 138.707031 236.371094 136.980469 235.382812 136.457031 234.4375 C 138.589844 230.429688 138.945312 227.375 137.527344 225.273438 C 134.070312 226.65625 131.894531 228.332031 131.003906 230.300781 L 124.699219 231.070312 " fill-opacity="1" fill-rule="nonzero"/><path fill="rgb(85.879517%, 81.568909%, 78.819275%)" d="M 177.652344 257.175781 C 177.105469 257.6875 176.226562 258.171875 175.0625 258.625 C 170.914062 256.429688 160.730469 254.878906 148.820312 254.878906 C 138.605469 254.878906 129.65625 256.019531 124.699219 257.730469 L 124.699219 255.917969 C 129.265625 253.929688 138.9375 252.5625 150.128906 252.5625 C 163.550781 252.5625 174.789062 254.53125 177.652344 257.175781 " fill-opacity="1" fill-rule="nonzero"/><path fill="rgb(100%, 100%, 100%)" d="M 178.984375 258.503906 C 185.933594 258.117188 184.390625 268.933594 178.984375 268.933594 L 178.984375 258.503906 " fill-opacity="1" fill-rule="evenodd"/><path fill="rgb(100%, 100%, 100%)" d="M 184.265625 261.207031 C 186.507812 253.910156 178.332031 232.738281 169.699219 230.765625 L 169.152344 228.8125 C 184.449219 232.277344 188.683594 262.195312 185.28125 262.792969 L 181.261719 263.503906 C 180.121094 263.703125 179.820312 261.992188 180.957031 261.789062 L 184.265625 261.207031 " fill-opacity="1" fill-rule="nonzero"/><path fill="rgb(100%, 100%, 100%)" d="M 122.324219 258.503906 L 122.324219 267.601562 C 119.746094 265.242188 117.292969 262.753906 114.96875 260.140625 C 114.421875 252.640625 119.503906 231.679688 132.15625 228.8125 L 131.609375 230.765625 C 122.976562 232.738281 114.800781 253.910156 117.042969 261.207031 L 117.921875 261.363281 C 118.449219 259.652344 119.847656 258.367188 122.324219 258.503906 " fill-opacity="1" fill-rule="nonzero"/><path fill="rgb(100%, 100%, 100%)" d="M 122.601562 267.851562 L 122.601562 261.253906 C 135.699219 265.324219 157.566406 266.0625 177.445312 260.59375 L 177.445312 294.769531 C 155.453125 290.074219 137.0625 280.980469 122.601562 267.851562 " fill-opacity="1" fill-rule="nonzero"/><path fill="rgb(85.879517%, 81.568909%, 78.819275%)" d="M 124.699219 267.667969 L 124.699219 261.253906 C 137.796875 265.324219 157.566406 266.0625 177.445312 260.59375 L 177.445312 265.304688 C 167.363281 262.398438 172.847656 274.402344 171.546875 279.050781 C 170.824219 281.625 166.871094 283.015625 166.617188 277.328125 C 166.550781 275.914062 167.484375 266.777344 164.449219 267.757812 C 161.710938 268.644531 163.425781 271.371094 162.132812 272.394531 C 160.449219 273.726562 159.789062 272.277344 158.691406 270.972656 C 157.71875 269.816406 155.613281 268.425781 154.882812 270.671875 C 154.503906 271.84375 157.347656 279.484375 156.078125 280.839844 C 154.492188 282.539062 151.722656 281.441406 151.144531 279.351562 C 150.445312 276.804688 153.5625 268.488281 149.128906 268.207031 C 144.664062 267.921875 147.859375 272.1875 145.617188 272.542969 C 141.019531 273.277344 136.4375 262.148438 136.503906 270.375 C 136.519531 272.449219 135.199219 271.574219 135.976562 274.945312 C 136.214844 275.976562 134.566406 276.128906 134.335938 270.375 C 134.210938 267.285156 131.988281 263.148438 130.300781 265.738281 C 129.546875 266.894531 129.636719 269.683594 127.984375 269.402344 C 126.6875 269.179688 125.605469 268.546875 124.699219 267.667969 " fill-opacity="1" fill-rule="nonzero"/></svg>